<svg version="1.1" xmlns="http://www.w3.org/2000/svg" xmlns:xlink="http://www.w3.org/1999/xlink" width="181.504" height="12.096"><g transform="translate(-149.8722,-172.326)"><g data-paper-data="{&quot;isPaintingLayer&quot;:true}" fill="#1f1f1f" fill-rule="nonzero" stroke="none" stroke-width="1" stroke-linecap="butt" stroke-linejoin="round" stroke-miterlimit="2" stroke-dasharray="" stroke-dashoffset="0" font-family="none" font-weight="none" font-size="none" text-anchor="none" style="mix-blend-mode: normal"><path d="M160.1122,184.182h-2.176l-5.424,-6.208v6.208h-2.64v-10.72h2.192l5.424,6.4v-6.4h2.624z"/><path d="M165.6962,184.422c-1.28,0 -2.304,-0.512 -2.992,-1.168c-0.72,-0.688 -1.248,-1.76 -1.248,-3.088c0,-2.032 1.152,-3.36 2.624,-3.936c0.528,-0.208 1.072,-0.32 1.632,-0.32c1.936,0 3.216,1.104 3.792,2.512c0.224,0.528 0.336,1.12 0.352,1.744v0.656h-5.888c0.192,0.832 0.784,1.552 1.728,1.552c0.8,0 1.376,-0.304 1.712,-0.928l2.272,0.464c-0.624,1.488 -1.888,2.512 -3.984,2.512zM165.7122,177.99c-0.832,0 -1.488,0.592 -1.696,1.264h3.312c-0.208,-0.704 -0.768,-1.264 -1.616,-1.264z"/><path d="M180.1122,184.182h-2.224l-1.44,-4.336l-1.456,4.336h-2.224l-2.576,-8.032h2.512l1.312,4.304l1.52,-4.304h1.808l1.52,4.32l1.312,-4.32h2.512z"/><path d="M192.8322,181.286h2.56c-0.288,1.344 -1.216,2.32 -2.352,2.784c-0.544,0.24 -1.12,0.352 -1.744,0.352c-1.312,0 -2.368,-0.512 -3.088,-1.168c-0.72,-0.688 -1.296,-1.76 -1.296,-3.088c0,-1.536 0.72,-2.656 1.6,-3.328c0.656,-0.512 1.616,-0.928 2.784,-0.928c0.976,0 1.856,0.288 2.608,0.848c0.768,0.56 1.264,1.312 1.488,2.24h-2.592c-0.288,-0.48 -0.816,-0.848 -1.504,-0.848c-1.136,0 -1.92,0.848 -1.92,2.016c0,1.136 0.752,2.016 1.92,2.016c0.768,0 1.248,-0.384 1.536,-0.896z"/><path d="M200.4162,177.926c-0.56,0 -0.944,0.16 -1.168,0.512h-2.592c0.24,-1.056 0.912,-1.744 1.84,-2.176c0.512,-0.24 1.12,-0.352 1.84,-0.352c1.712,0 2.912,0.64 3.424,1.824c0.176,0.4 0.256,0.864 0.256,1.36v5.088h-2.464v-0.592c-0.656,0.56 -1.456,0.832 -2.4,0.832c-1.696,0 -2.992,-0.976 -2.992,-2.624c0,-1.76 1.472,-2.592 3.344,-2.592h2.048v-0.16c0,-0.656 -0.48,-1.12 -1.136,-1.12zM199.8722,182.502c0.64,0 1.104,-0.288 1.424,-0.672c0.176,-0.224 0.256,-0.496 0.256,-0.816v-0.176h-1.76c-0.56,0 -1.04,0.304 -1.04,0.832c0,0.544 0.544,0.832 1.12,0.832z"/><path d="M210.6402,175.91c1.52,0 2.48,0.848 2.896,1.984c0.144,0.416 0.224,0.864 0.224,1.36v4.928h-2.544v-4.384c0,-0.864 -0.496,-1.584 -1.376,-1.584c-1.2,0 -1.664,0.944 -1.664,2.24v3.728h-2.56v-8.032h2.56v0.768c0.544,-0.576 1.392,-1.008 2.464,-1.008z"/><path d="M220.2562,184.182h-2.608l-3.328,-8.032h2.704l1.936,4.944l1.92,-4.944h2.704z"/><path d="M228.0322,177.926c-0.56,0 -0.944,0.16 -1.168,0.512h-2.592c0.24,-1.056 0.912,-1.744 1.84,-2.176c0.512,-0.24 1.12,-0.352 1.84,-0.352c1.712,0 2.912,0.64 3.424,1.824c0.176,0.4 0.256,0.864 0.256,1.36v5.088h-2.464v-0.592c-0.656,0.56 -1.456,0.832 -2.4,0.832c-1.696,0 -2.992,-0.976 -2.992,-2.624c0,-1.76 1.472,-2.592 3.344,-2.592h2.048v-0.16c0,-0.656 -0.48,-1.12 -1.136,-1.12zM227.4882,182.502c0.64,0 1.104,-0.288 1.424,-0.672c0.176,-0.224 0.256,-0.496 0.256,-0.816v-0.176h-1.76c-0.56,0 -1.04,0.304 -1.04,0.832c0,0.544 0.544,0.832 1.12,0.832z"/><path d="M236.3362,175.91c1.856,0 3.312,0.832 3.648,2.304l-2.56,-0.016c-0.256,-0.288 -0.624,-0.464 -1.12,-0.464c-0.496,0 -0.912,0.192 -0.912,0.624c0,0.288 0.208,0.48 0.608,0.56l1.888,0.384c1.248,0.256 2.224,1.04 2.224,2.416c0,1.904 -1.712,2.704 -3.648,2.704c-1.968,0 -3.488,-0.704 -3.776,-2.336l2.736,0.016c0.224,0.288 0.72,0.416 1.184,0.416c0.512,0 1.04,-0.192 1.04,-0.64c0,-0.304 -0.272,-0.496 -0.8,-0.592l-1.632,-0.32c-1.28,-0.24 -2.336,-0.928 -2.336,-2.336c0,-1.76 1.6,-2.72 3.456,-2.72z"/><path d="M242.5122,176.246c0.784,0 1.472,0.656 1.472,1.44c0,0.816 -0.656,1.44 -1.472,1.44c-0.816,0 -1.456,-0.624 -1.456,-1.44c0,-0.784 0.672,-1.44 1.456,-1.44zM242.5122,181.382c0.784,0 1.472,0.656 1.472,1.44c0,0.816 -0.656,1.44 -1.472,1.44c-0.816,0 -1.456,-0.624 -1.456,-1.44c0,-0.784 0.672,-1.44 1.456,-1.44z"/><path d="M251.8562,176.438c0,0.544 0.352,0.784 0.864,0.896l2.224,0.496c1.648,0.368 2.944,1.248 2.944,3.12c0,1.84 -1.248,2.832 -2.72,3.248c-0.528,0.144 -1.104,0.224 -1.696,0.224c-1.92,0 -3.408,-0.704 -4.176,-1.872c-0.272,-0.416 -0.432,-0.88 -0.512,-1.376h2.912c0.32,0.688 1.008,1.056 1.92,1.056c0.816,0 1.584,-0.352 1.584,-1.104c0,-0.608 -0.4,-0.816 -0.992,-0.944l-2.24,-0.48c-1.92,-0.432 -2.88,-1.472 -2.88,-3.104c0,-2.208 1.936,-3.376 4.24,-3.376c2.336,0 4.032,1.168 4.432,3.104h-2.784c-0.288,-0.56 -0.912,-0.976 -1.68,-0.976c-0.752,0 -1.44,0.384 -1.44,1.088z"/><path d="M263.1682,184.422c-1.28,0 -2.304,-0.512 -2.992,-1.168c-0.72,-0.688 -1.248,-1.76 -1.248,-3.088c0,-2.032 1.152,-3.36 2.624,-3.936c0.528,-0.208 1.072,-0.32 1.632,-0.32c1.936,0 3.216,1.104 3.792,2.512c0.224,0.528 0.336,1.12 0.352,1.744v0.656h-5.888c0.192,0.832 0.784,1.552 1.728,1.552c0.8,0 1.376,-0.304 1.712,-0.928l2.272,0.464c-0.624,1.488 -1.888,2.512 -3.984,2.512zM263.1842,177.99c-0.832,0 -1.488,0.592 -1.696,1.264h3.312c-0.208,-0.704 -0.768,-1.264 -1.616,-1.264z"/><path d="M268.6562,184.182v-11.52h2.56v11.52z"/><path d="M276.7842,184.422c-1.28,0 -2.304,-0.512 -2.992,-1.168c-0.72,-0.688 -1.248,-1.76 -1.248,-3.088c0,-2.032 1.152,-3.36 2.624,-3.936c0.528,-0.208 1.072,-0.32 1.632,-0.32c1.936,0 3.216,1.104 3.792,2.512c0.224,0.528 0.336,1.12 0.352,1.744v0.656h-5.888c0.192,0.832 0.784,1.552 1.728,1.552c0.8,0 1.376,-0.304 1.712,-0.928l2.272,0.464c-0.624,1.488 -1.888,2.512 -3.984,2.512zM276.8002,177.99c-0.832,0 -1.488,0.592 -1.696,1.264h3.312c-0.208,-0.704 -0.768,-1.264 -1.616,-1.264z"/><path d="M287.6642,181.286h2.56c-0.288,1.344 -1.216,2.32 -2.352,2.784c-0.544,0.24 -1.12,0.352 -1.744,0.352c-1.312,0 -2.368,-0.512 -3.088,-1.168c-0.72,-0.688 -1.296,-1.76 -1.296,-3.088c0,-1.536 0.72,-2.656 1.6,-3.328c0.656,-0.512 1.616,-0.928 2.784,-0.928c0.976,0 1.856,0.288 2.608,0.848c0.768,0.56 1.264,1.312 1.488,2.24h-2.592c-0.288,-0.48 -0.816,-0.848 -1.504,-0.848c-1.136,0 -1.92,0.848 -1.92,2.016c0,1.136 0.752,2.016 1.92,2.016c0.768,0 1.248,-0.384 1.536,-0.896z"/><path d="M296.9122,181.814l0.592,2.016c-0.736,0.4 -1.472,0.592 -2.192,0.592c-2.032,0 -3.2,-1.152 -3.2,-3.2v-3.04h-1.456v-2.032h1.456v-2.368h2.56v2.368h2.368v2.032h-2.368v2.784c0,0.784 0.352,1.168 1.072,1.168c0.384,0 0.896,-0.176 1.168,-0.32z"/><path d="M305.2962,175.91c1.856,0 3.312,0.832 3.648,2.304l-2.56,-0.016c-0.256,-0.288 -0.624,-0.464 -1.12,-0.464c-0.496,0 -0.912,0.192 -0.912,0.624c0,0.288 0.208,0.48 0.608,0.56l1.888,0.384c1.248,0.256 2.224,1.04 2.224,2.416c0,1.904 -1.712,2.704 -3.648,2.704c-1.968,0 -3.488,-0.704 -3.776,-2.336l2.736,0.016c0.224,0.288 0.72,0.416 1.184,0.416c0.512,0 1.04,-0.192 1.04,-0.64c0,-0.304 -0.272,-0.496 -0.8,-0.592l-1.632,-0.32c-1.28,-0.24 -2.336,-0.928 -2.336,-2.336c0,-1.76 1.6,-2.72 3.456,-2.72z"/><path d="M311.8402,172.326c0.816,0 1.488,0.624 1.488,1.456c0,0.816 -0.656,1.424 -1.488,1.424c-0.816,0 -1.472,-0.576 -1.472,-1.424c0,-0.8 0.656,-1.456 1.472,-1.456zM310.5602,184.182v-8.032h2.56v8.032z"/><path d="M322.1922,184.182h-7.424v-1.648l4.032,-4.352h-3.936v-2.032h7.184v1.68l-4.032,4.32h4.176z"/><path d="M327.2162,184.422c-1.28,0 -2.304,-0.512 -2.992,-1.168c-0.72,-0.688 -1.248,-1.76 -1.248,-3.088c0,-2.032 1.152,-3.36 2.624,-3.936c0.528,-0.208 1.072,-0.32 1.632,-0.32c1.936,0 3.216,1.104 3.792,2.512c0.224,0.528 0.336,1.12 0.352,1.744v0.656h-5.888c0.192,0.832 0.784,1.552 1.728,1.552c0.8,0 1.376,-0.304 1.712,-0.928l2.272,0.464c-0.624,1.488 -1.888,2.512 -3.984,2.512zM327.2322,177.99c-0.832,0 -1.488,0.592 -1.696,1.264h3.312c-0.208,-0.704 -0.768,-1.264 -1.616,-1.264z"/></g></g></svg>