<?xml version="1.0" encoding="UTF-8" standalone="no"?>
<!DOCTYPE svg PUBLIC "-//W3C//DTD SVG 1.1//EN" "http://www.w3.org/Graphics/SVG/1.1/DTD/svg11.dtd">
<svg width="333px" height="17px" version="1.1" xmlns="http://www.w3.org/2000/svg" xmlns:xlink="http://www.w3.org/1999/xlink" xml:space="preserve" xmlns:serif="http://www.serif.com/" style="fill-rule:evenodd;clip-rule:evenodd;stroke-linejoin:round;stroke-miterlimit:2;">
    <g transform="matrix(1,0,0,1,-73.8101,-170.341)">
        <g transform="matrix(1,0,0,1,157.826,-9.17525)">
            <g transform="matrix(18,0,0,18,-84.6471,192.475)">
                <path d="M0.391,-0.135C0.365,-0.135 0.34,-0.14 0.317,-0.15C0.252,-0.178 0.2,-0.244 0.2,-0.335C0.2,-0.362 0.205,-0.388 0.215,-0.413C0.242,-0.479 0.301,-0.534 0.391,-0.534C0.456,-0.534 0.506,-0.506 0.533,-0.466C0.541,-0.456 0.547,-0.439 0.552,-0.428L0.728,-0.428C0.712,-0.506 0.673,-0.568 0.61,-0.615C0.547,-0.662 0.474,-0.685 0.391,-0.685C0.284,-0.685 0.197,-0.639 0.139,-0.583C0.082,-0.527 0.035,-0.441 0.035,-0.335C0.035,-0.229 0.082,-0.142 0.139,-0.086C0.197,-0.03 0.284,0.015 0.391,0.015C0.433,0.015 0.473,0.009 0.511,-0.003C0.625,-0.039 0.706,-0.125 0.729,-0.251L0.557,-0.251C0.532,-0.183 0.476,-0.135 0.391,-0.135Z" style="fill-rule:nonzero;"/>
            </g>
            <g transform="matrix(18,0,0,18,-70.8951,192.475)">
                <path d="M0.303,-0.515C0.22,-0.515 0.152,-0.484 0.106,-0.442C0.061,-0.399 0.025,-0.335 0.025,-0.251C0.025,-0.163 0.067,-0.088 0.121,-0.047C0.172,-0.009 0.227,0.014 0.303,0.014C0.34,0.014 0.375,0.008 0.408,-0.005C0.502,-0.041 0.578,-0.124 0.578,-0.251C0.578,-0.289 0.57,-0.326 0.553,-0.363C0.515,-0.45 0.422,-0.515 0.303,-0.515ZM0.179,-0.251C0.179,-0.324 0.231,-0.381 0.303,-0.381C0.371,-0.381 0.424,-0.321 0.424,-0.251C0.424,-0.179 0.371,-0.121 0.303,-0.121C0.233,-0.121 0.179,-0.177 0.179,-0.251Z" style="fill-rule:nonzero;"/>
            </g>
            <g transform="matrix(18,0,0,18,-60.0411,192.475)">
                <path d="M0.374,-0.517C0.311,-0.517 0.259,-0.499 0.218,-0.462L0.218,-0.502L0.058,-0.502L0.058,0.17L0.218,0.17L0.218,-0.04C0.259,-0.003 0.311,0.015 0.374,0.015C0.448,0.015 0.508,-0.017 0.546,-0.058C0.587,-0.102 0.619,-0.17 0.619,-0.251C0.619,-0.316 0.597,-0.38 0.566,-0.419C0.524,-0.473 0.465,-0.517 0.374,-0.517L0.374,-0.517ZM0.218,-0.251C0.218,-0.322 0.272,-0.381 0.341,-0.381C0.415,-0.381 0.462,-0.323 0.462,-0.251C0.462,-0.176 0.413,-0.121 0.341,-0.121C0.271,-0.121 0.218,-0.178 0.218,-0.251L0.218,-0.251Z" style="fill-rule:nonzero;"/>
            </g>
            <g transform="matrix(18,0,0,18,-48.7731,192.475)">
                <path d="M0.597,-0.502L0.425,-0.502L0.298,-0.209L0.179,-0.502L0.007,-0.502L0.215,-0.017L0.134,0.17L0.307,0.17L0.597,-0.502Z" style="fill-rule:nonzero;"/>
            </g>
            <g transform="matrix(18,0,0,18,-33.7251,192.475)">
                <path d="M0.36,-0.321L0.36,-0.311L0.232,-0.311C0.115,-0.311 0.023,-0.259 0.023,-0.149C0.023,-0.046 0.104,0.015 0.21,0.015C0.269,0.015 0.319,-0.002 0.36,-0.037L0.36,0L0.514,0L0.514,-0.318C0.514,-0.349 0.509,-0.378 0.498,-0.403C0.466,-0.477 0.391,-0.517 0.284,-0.517C0.239,-0.517 0.201,-0.51 0.169,-0.495C0.111,-0.468 0.069,-0.425 0.054,-0.359L0.216,-0.359C0.23,-0.381 0.254,-0.391 0.289,-0.391C0.33,-0.391 0.36,-0.362 0.36,-0.321L0.36,-0.321ZM0.185,-0.157C0.185,-0.19 0.215,-0.209 0.25,-0.209L0.36,-0.209L0.36,-0.198C0.36,-0.178 0.355,-0.161 0.344,-0.147C0.324,-0.123 0.295,-0.105 0.255,-0.105C0.219,-0.105 0.185,-0.123 0.185,-0.157Z" style="fill-rule:nonzero;"/>
            </g>
            <g transform="matrix(18,0,0,18,-23.7171,192.475)">
                <path d="M0.218,-0.454L0.218,-0.502L0.058,-0.502L0.058,0L0.218,0L0.218,-0.233C0.218,-0.314 0.247,-0.373 0.322,-0.373C0.377,-0.373 0.408,-0.328 0.408,-0.274L0.408,0L0.567,0L0.567,-0.308C0.567,-0.339 0.562,-0.367 0.553,-0.393C0.527,-0.464 0.467,-0.517 0.372,-0.517C0.305,-0.517 0.252,-0.49 0.218,-0.454L0.218,-0.454Z" style="fill-rule:nonzero;"/>
            </g>
            <g transform="matrix(18,0,0,18,-12.5931,192.475)">
                <path d="M0.586,-0.72L0.426,-0.72L0.426,-0.462C0.385,-0.499 0.333,-0.517 0.27,-0.517C0.199,-0.517 0.138,-0.484 0.102,-0.447C0.057,-0.401 0.025,-0.337 0.025,-0.251C0.025,-0.17 0.057,-0.102 0.098,-0.058C0.136,-0.017 0.196,0.015 0.27,0.015C0.333,0.015 0.385,-0.003 0.426,-0.04L0.426,0L0.586,0L0.586,-0.72ZM0.182,-0.251C0.182,-0.323 0.229,-0.381 0.303,-0.381C0.372,-0.381 0.426,-0.322 0.426,-0.251C0.426,-0.178 0.373,-0.121 0.303,-0.121C0.229,-0.121 0.182,-0.179 0.182,-0.251L0.182,-0.251Z" style="fill-rule:nonzero;"/>
            </g>
            <g transform="matrix(18,0,0,18,3.17493,192.475)">
                <path d="M0.374,-0.517C0.311,-0.517 0.259,-0.499 0.218,-0.462L0.218,-0.502L0.058,-0.502L0.058,0.17L0.218,0.17L0.218,-0.04C0.259,-0.003 0.311,0.015 0.374,0.015C0.448,0.015 0.508,-0.017 0.546,-0.058C0.587,-0.102 0.619,-0.17 0.619,-0.251C0.619,-0.316 0.597,-0.38 0.566,-0.419C0.524,-0.473 0.465,-0.517 0.374,-0.517L0.374,-0.517ZM0.218,-0.251C0.218,-0.322 0.272,-0.381 0.341,-0.381C0.415,-0.381 0.462,-0.323 0.462,-0.251C0.462,-0.176 0.413,-0.121 0.341,-0.121C0.271,-0.121 0.218,-0.178 0.218,-0.251L0.218,-0.251Z" style="fill-rule:nonzero;"/>
            </g>
            <g transform="matrix(18,0,0,18,14.7669,192.475)">
                <path d="M0.36,-0.321L0.36,-0.311L0.232,-0.311C0.115,-0.311 0.023,-0.259 0.023,-0.149C0.023,-0.046 0.104,0.015 0.21,0.015C0.269,0.015 0.319,-0.002 0.36,-0.037L0.36,0L0.514,0L0.514,-0.318C0.514,-0.349 0.509,-0.378 0.498,-0.403C0.466,-0.477 0.391,-0.517 0.284,-0.517C0.239,-0.517 0.201,-0.51 0.169,-0.495C0.111,-0.468 0.069,-0.425 0.054,-0.359L0.216,-0.359C0.23,-0.381 0.254,-0.391 0.289,-0.391C0.33,-0.391 0.36,-0.362 0.36,-0.321L0.36,-0.321ZM0.185,-0.157C0.185,-0.19 0.215,-0.209 0.25,-0.209L0.36,-0.209L0.36,-0.198C0.36,-0.178 0.355,-0.161 0.344,-0.147C0.324,-0.123 0.295,-0.105 0.255,-0.105C0.219,-0.105 0.185,-0.123 0.185,-0.157Z" style="fill-rule:nonzero;"/>
            </g>
            <g transform="matrix(18,0,0,18,24.7749,192.475)">
                <path d="M0.036,-0.347C0.036,-0.259 0.102,-0.216 0.182,-0.201L0.284,-0.181C0.317,-0.175 0.334,-0.163 0.334,-0.144C0.334,-0.116 0.301,-0.104 0.269,-0.104C0.24,-0.104 0.209,-0.112 0.195,-0.13L0.024,-0.131C0.042,-0.029 0.137,0.015 0.26,0.015C0.381,0.015 0.488,-0.035 0.488,-0.154C0.488,-0.24 0.427,-0.289 0.349,-0.305L0.231,-0.329C0.206,-0.334 0.193,-0.346 0.193,-0.364C0.193,-0.391 0.219,-0.403 0.25,-0.403C0.281,-0.403 0.304,-0.392 0.32,-0.374L0.48,-0.373C0.459,-0.465 0.368,-0.517 0.252,-0.517C0.136,-0.517 0.036,-0.457 0.036,-0.347Z" style="fill-rule:nonzero;"/>
            </g>
            <g transform="matrix(18,0,0,18,34.0449,192.475)">
                <path d="M0.32,-0.128C0.275,-0.128 0.253,-0.152 0.253,-0.201L0.253,-0.375L0.401,-0.375L0.401,-0.502L0.253,-0.502L0.253,-0.65L0.093,-0.65L0.093,-0.502L0.002,-0.502L0.002,-0.375L0.093,-0.375L0.093,-0.185C0.093,-0.057 0.166,0.015 0.293,0.015C0.338,0.015 0.384,0.003 0.43,-0.022L0.393,-0.148C0.376,-0.139 0.344,-0.128 0.32,-0.128Z" style="fill-rule:nonzero;"/>
            </g>
            <g transform="matrix(18,0,0,18,41.6589,192.475)">
                <path d="M0.539,-0.142L0.397,-0.171C0.376,-0.132 0.34,-0.113 0.29,-0.113C0.231,-0.113 0.194,-0.158 0.182,-0.21L0.55,-0.21L0.55,-0.251C0.549,-0.29 0.542,-0.327 0.528,-0.36C0.492,-0.448 0.412,-0.517 0.291,-0.517C0.256,-0.517 0.222,-0.51 0.189,-0.497C0.097,-0.461 0.025,-0.378 0.025,-0.251C0.025,-0.168 0.058,-0.101 0.103,-0.058C0.146,-0.017 0.21,0.015 0.29,0.015C0.421,0.015 0.5,-0.049 0.539,-0.142ZM0.392,-0.308L0.185,-0.308C0.198,-0.35 0.239,-0.387 0.291,-0.387C0.344,-0.387 0.379,-0.352 0.392,-0.308Z" style="fill-rule:nonzero;"/>
            </g>
            <g transform="matrix(18,0,0,18,56.1849,192.475)">
                <path d="M0.597,-0.502L0.425,-0.502L0.298,-0.209L0.179,-0.502L0.007,-0.502L0.215,-0.017L0.134,0.17L0.307,0.17L0.597,-0.502Z" style="fill-rule:nonzero;"/>
            </g>
            <g transform="matrix(18,0,0,18,66.7329,192.475)">
                <path d="M0.303,-0.515C0.22,-0.515 0.152,-0.484 0.106,-0.442C0.061,-0.399 0.025,-0.335 0.025,-0.251C0.025,-0.163 0.067,-0.088 0.121,-0.047C0.172,-0.009 0.227,0.014 0.303,0.014C0.34,0.014 0.375,0.008 0.408,-0.005C0.502,-0.041 0.578,-0.124 0.578,-0.251C0.578,-0.289 0.57,-0.326 0.553,-0.363C0.515,-0.45 0.422,-0.515 0.303,-0.515ZM0.179,-0.251C0.179,-0.324 0.231,-0.381 0.303,-0.381C0.371,-0.381 0.424,-0.321 0.424,-0.251C0.424,-0.179 0.371,-0.121 0.303,-0.121C0.233,-0.121 0.179,-0.177 0.179,-0.251Z" style="fill-rule:nonzero;"/>
            </g>
            <g transform="matrix(18,0,0,18,77.5869,192.475)">
                <path d="M0.296,-0.129C0.241,-0.129 0.21,-0.174 0.21,-0.228L0.21,-0.502L0.051,-0.502L0.051,-0.194C0.051,-0.163 0.056,-0.135 0.065,-0.109C0.091,-0.038 0.151,0.015 0.246,0.015C0.313,0.015 0.366,-0.012 0.4,-0.048L0.4,0L0.56,0L0.56,-0.502L0.4,-0.502L0.4,-0.269C0.4,-0.188 0.371,-0.129 0.296,-0.129L0.296,-0.129Z" style="fill-rule:nonzero;"/>
            </g>
            <g transform="matrix(18,0,0,18,92.8869,192.475)">
                <path d="M0.036,-0.347C0.036,-0.259 0.102,-0.216 0.182,-0.201L0.284,-0.181C0.317,-0.175 0.334,-0.163 0.334,-0.144C0.334,-0.116 0.301,-0.104 0.269,-0.104C0.24,-0.104 0.209,-0.112 0.195,-0.13L0.024,-0.131C0.042,-0.029 0.137,0.015 0.26,0.015C0.381,0.015 0.488,-0.035 0.488,-0.154C0.488,-0.24 0.427,-0.289 0.349,-0.305L0.231,-0.329C0.206,-0.334 0.193,-0.346 0.193,-0.364C0.193,-0.391 0.219,-0.403 0.25,-0.403C0.281,-0.403 0.304,-0.392 0.32,-0.374L0.48,-0.373C0.459,-0.465 0.368,-0.517 0.252,-0.517C0.136,-0.517 0.036,-0.457 0.036,-0.347Z" style="fill-rule:nonzero;"/>
            </g>
            <g transform="matrix(18,0,0,18,102.157,192.475)">
                <path d="M0.321,-0.373C0.374,-0.373 0.408,-0.329 0.408,-0.274L0.408,0L0.567,0L0.567,-0.308C0.567,-0.429 0.492,-0.517 0.373,-0.517C0.31,-0.517 0.259,-0.496 0.218,-0.454L0.218,-0.72L0.058,-0.72L0.058,0L0.218,0L0.218,-0.233C0.218,-0.314 0.247,-0.373 0.321,-0.373Z" style="fill-rule:nonzero;"/>
            </g>
            <g transform="matrix(18,0,0,18,113.299,192.475)">
                <path d="M0.36,-0.321L0.36,-0.311L0.232,-0.311C0.115,-0.311 0.023,-0.259 0.023,-0.149C0.023,-0.046 0.104,0.015 0.21,0.015C0.269,0.015 0.319,-0.002 0.36,-0.037L0.36,0L0.514,0L0.514,-0.318C0.514,-0.349 0.509,-0.378 0.498,-0.403C0.466,-0.477 0.391,-0.517 0.284,-0.517C0.239,-0.517 0.201,-0.51 0.169,-0.495C0.111,-0.468 0.069,-0.425 0.054,-0.359L0.216,-0.359C0.23,-0.381 0.254,-0.391 0.289,-0.391C0.33,-0.391 0.36,-0.362 0.36,-0.321L0.36,-0.321ZM0.185,-0.157C0.185,-0.19 0.215,-0.209 0.25,-0.209L0.36,-0.209L0.36,-0.198C0.36,-0.178 0.355,-0.161 0.344,-0.147C0.324,-0.123 0.295,-0.105 0.255,-0.105C0.219,-0.105 0.185,-0.123 0.185,-0.157Z" style="fill-rule:nonzero;"/>
            </g>
            <g transform="matrix(18,0,0,18,123.307,192.475)">
                <path d="M0.218,-0.406L0.218,-0.502L0.058,-0.502L0.058,0L0.218,0L0.218,-0.157C0.218,-0.282 0.276,-0.345 0.391,-0.345L0.42,-0.345L0.427,-0.505C0.416,-0.508 0.404,-0.509 0.391,-0.509C0.306,-0.509 0.252,-0.461 0.218,-0.406L0.218,-0.406Z" style="fill-rule:nonzero;"/>
            </g>
            <g transform="matrix(18,0,0,18,131.119,192.475)">
                <path d="M0.539,-0.142L0.397,-0.171C0.376,-0.132 0.34,-0.113 0.29,-0.113C0.231,-0.113 0.194,-0.158 0.182,-0.21L0.55,-0.21L0.55,-0.251C0.549,-0.29 0.542,-0.327 0.528,-0.36C0.492,-0.448 0.412,-0.517 0.291,-0.517C0.256,-0.517 0.222,-0.51 0.189,-0.497C0.097,-0.461 0.025,-0.378 0.025,-0.251C0.025,-0.168 0.058,-0.101 0.103,-0.058C0.146,-0.017 0.21,0.015 0.29,0.015C0.421,0.015 0.5,-0.049 0.539,-0.142ZM0.392,-0.308L0.185,-0.308C0.198,-0.35 0.239,-0.387 0.291,-0.387C0.344,-0.387 0.379,-0.352 0.392,-0.308Z" style="fill-rule:nonzero;"/>
            </g>
            <g transform="matrix(18,0,0,18,145.645,192.475)">
                <path d="M0.299,-0.125C0.226,-0.125 0.179,-0.18 0.179,-0.251C0.179,-0.324 0.228,-0.377 0.299,-0.377C0.342,-0.377 0.375,-0.354 0.393,-0.324L0.555,-0.324C0.541,-0.382 0.51,-0.429 0.462,-0.464C0.415,-0.499 0.36,-0.517 0.299,-0.517C0.226,-0.517 0.166,-0.491 0.125,-0.459C0.07,-0.417 0.025,-0.347 0.025,-0.251C0.025,-0.168 0.061,-0.101 0.106,-0.058C0.151,-0.017 0.217,0.015 0.299,0.015C0.338,0.015 0.374,0.008 0.408,-0.007C0.479,-0.036 0.537,-0.097 0.555,-0.181L0.395,-0.181C0.377,-0.149 0.347,-0.125 0.299,-0.125Z" style="fill-rule:nonzero;"/>
            </g>
            <g transform="matrix(18,0,0,18,156.085,192.475)">
                <path d="M0.303,-0.515C0.22,-0.515 0.152,-0.484 0.106,-0.442C0.061,-0.399 0.025,-0.335 0.025,-0.251C0.025,-0.163 0.067,-0.088 0.121,-0.047C0.172,-0.009 0.227,0.014 0.303,0.014C0.34,0.014 0.375,0.008 0.408,-0.005C0.502,-0.041 0.578,-0.124 0.578,-0.251C0.578,-0.289 0.57,-0.326 0.553,-0.363C0.515,-0.45 0.422,-0.515 0.303,-0.515ZM0.179,-0.251C0.179,-0.324 0.231,-0.381 0.303,-0.381C0.371,-0.381 0.424,-0.321 0.424,-0.251C0.424,-0.179 0.371,-0.121 0.303,-0.121C0.233,-0.121 0.179,-0.177 0.179,-0.251Z" style="fill-rule:nonzero;"/>
            </g>
            <g transform="matrix(18,0,0,18,166.939,192.475)">
                <path d="M0.586,-0.72L0.426,-0.72L0.426,-0.462C0.385,-0.499 0.333,-0.517 0.27,-0.517C0.199,-0.517 0.138,-0.484 0.102,-0.447C0.057,-0.401 0.025,-0.337 0.025,-0.251C0.025,-0.17 0.057,-0.102 0.098,-0.058C0.136,-0.017 0.196,0.015 0.27,0.015C0.333,0.015 0.385,-0.003 0.426,-0.04L0.426,0L0.586,0L0.586,-0.72ZM0.182,-0.251C0.182,-0.323 0.229,-0.381 0.303,-0.381C0.372,-0.381 0.426,-0.322 0.426,-0.251C0.426,-0.178 0.373,-0.121 0.303,-0.121C0.229,-0.121 0.182,-0.179 0.182,-0.251L0.182,-0.251Z" style="fill-rule:nonzero;"/>
            </g>
            <g transform="matrix(18,0,0,18,178.531,192.475)">
                <path d="M0.539,-0.142L0.397,-0.171C0.376,-0.132 0.34,-0.113 0.29,-0.113C0.231,-0.113 0.194,-0.158 0.182,-0.21L0.55,-0.21L0.55,-0.251C0.549,-0.29 0.542,-0.327 0.528,-0.36C0.492,-0.448 0.412,-0.517 0.291,-0.517C0.256,-0.517 0.222,-0.51 0.189,-0.497C0.097,-0.461 0.025,-0.378 0.025,-0.251C0.025,-0.168 0.058,-0.101 0.103,-0.058C0.146,-0.017 0.21,0.015 0.29,0.015C0.421,0.015 0.5,-0.049 0.539,-0.142ZM0.392,-0.308L0.185,-0.308C0.198,-0.35 0.239,-0.387 0.291,-0.387C0.344,-0.387 0.379,-0.352 0.392,-0.308Z" style="fill-rule:nonzero;"/>
            </g>
            <g transform="matrix(18,0,0,18,193.057,192.475)">
                <path d="M0.374,-0.517C0.311,-0.517 0.259,-0.499 0.218,-0.462L0.218,-0.72L0.058,-0.72L0.058,0L0.218,0L0.218,-0.04C0.259,-0.003 0.311,0.015 0.374,0.015C0.448,0.015 0.508,-0.017 0.546,-0.058C0.587,-0.102 0.619,-0.17 0.619,-0.251C0.619,-0.316 0.597,-0.38 0.566,-0.42C0.524,-0.473 0.465,-0.517 0.374,-0.517ZM0.218,-0.251C0.218,-0.322 0.272,-0.381 0.341,-0.381C0.415,-0.381 0.462,-0.323 0.462,-0.251C0.462,-0.176 0.413,-0.121 0.341,-0.121C0.271,-0.121 0.218,-0.178 0.218,-0.251Z" style="fill-rule:nonzero;"/>
            </g>
            <g transform="matrix(18,0,0,18,204.649,192.475)">
                <path d="M0.539,-0.142L0.397,-0.171C0.376,-0.132 0.34,-0.113 0.29,-0.113C0.231,-0.113 0.194,-0.158 0.182,-0.21L0.55,-0.21L0.55,-0.251C0.549,-0.29 0.542,-0.327 0.528,-0.36C0.492,-0.448 0.412,-0.517 0.291,-0.517C0.256,-0.517 0.222,-0.51 0.189,-0.497C0.097,-0.461 0.025,-0.378 0.025,-0.251C0.025,-0.168 0.058,-0.101 0.103,-0.058C0.146,-0.017 0.21,0.015 0.29,0.015C0.421,0.015 0.5,-0.049 0.539,-0.142ZM0.392,-0.308L0.185,-0.308C0.198,-0.35 0.239,-0.387 0.291,-0.387C0.344,-0.387 0.379,-0.352 0.392,-0.308Z" style="fill-rule:nonzero;"/>
            </g>
            <g transform="matrix(18,0,0,18,214.999,192.475)">
                <rect x="0.058" y="-0.72" width="0.16" height="0.72" style="fill-rule:nonzero;"/>
            </g>
            <g transform="matrix(18,0,0,18,219.967,192.475)">
                <path d="M0.303,-0.515C0.22,-0.515 0.152,-0.484 0.106,-0.442C0.061,-0.399 0.025,-0.335 0.025,-0.251C0.025,-0.163 0.067,-0.088 0.121,-0.047C0.172,-0.009 0.227,0.014 0.303,0.014C0.34,0.014 0.375,0.008 0.408,-0.005C0.502,-0.041 0.578,-0.124 0.578,-0.251C0.578,-0.289 0.57,-0.326 0.553,-0.363C0.515,-0.45 0.422,-0.515 0.303,-0.515ZM0.179,-0.251C0.179,-0.324 0.231,-0.381 0.303,-0.381C0.371,-0.381 0.424,-0.321 0.424,-0.251C0.424,-0.179 0.371,-0.121 0.303,-0.121C0.233,-0.121 0.179,-0.177 0.179,-0.251Z" style="fill-rule:nonzero;"/>
            </g>
            <g transform="matrix(18,0,0,18,230.623,192.475)">
                <path d="M0.788,-0.502L0.631,-0.502L0.549,-0.232L0.454,-0.502L0.341,-0.502L0.246,-0.233L0.164,-0.502L0.007,-0.502L0.168,0L0.307,0L0.398,-0.271L0.488,0L0.627,0L0.788,-0.502Z" style="fill-rule:nonzero;"/>
            </g>
            <g transform="matrix(18,0,0,18,244.519,192.475)">
                <path d="M0.032,-0.085C0.032,-0.034 0.072,0.005 0.123,0.005C0.174,0.005 0.215,-0.034 0.215,-0.085C0.215,-0.134 0.172,-0.175 0.123,-0.175C0.074,-0.175 0.032,-0.134 0.032,-0.085Z" style="fill-rule:nonzero;"/>
            </g>
        </g>
    </g>
</svg>
