<svg version="1.1" xmlns="http://www.w3.org/2000/svg" xmlns:xlink="http://www.w3.org/1999/xlink" width="95.627" height="116.809"><defs><linearGradient x1="231.0645" y1="163.5285" x2="231.0645" y2="152.5154" gradientUnits="userSpaceOnUse" id="color-1"><stop offset="0" stop-color="#000000" stop-opacity="0.15"/><stop offset="1" stop-color="#000000" stop-opacity="0"/></linearGradient><linearGradient x1="231.064" y1="152.5155" x2="231.064" y2="163.5285" gradientUnits="userSpaceOnUse" id="color-2"><stop offset="0" stop-color="#ff305e"/><stop offset="1" stop-color="#d52048"/></linearGradient></defs><g transform="translate(-191.6865,-121.0955)"><g data-paper-data="{&quot;isPaintingLayer&quot;:true}" fill="none" fill-rule="evenodd" stroke="none" stroke-width="1" stroke-linecap="butt" stroke-linejoin="round" stroke-miterlimit="1.41421" stroke-dasharray="" stroke-dashoffset="0" font-family="none" font-weight="none" font-size="none" text-anchor="none" style="mix-blend-mode: normal"><path d="M191.6865,152.5155v-20.812c0,-5.854 4.753,-10.608 10.608,-10.608h57.539c5.855,0 10.608,4.754 10.608,10.608v20.812z" fill="#ff305e"/><path d="M191.6865,163.5285h10.608z" fill="url(#color-1)"/><path d="M270.4415,152.5155v0.405c0,5.829 -4.711,10.566 -10.608,10.608h-57.539h-10.608v-11.013z" fill="url(#color-2)"/><path d="M191.6865,163.5285h77.033c10.262,0 18.594,8.332 18.594,18.594v37.188c0,10.263 -8.332,18.594 -18.594,18.594h-58.439c-10.262,0 -18.594,-8.331 -18.594,-18.594z" fill="#ff305e"/><path d="M191.6865,142.5535c0,0 0,-16.107 0,-10.401c0,5.741 4.66,10.401 10.401,10.401h46.7c1.639,0 2.97,1.331 2.97,2.97c0,1.64 -1.331,2.971 -2.97,2.971h-47.037c-5.582,0.181 -10.058,4.769 -10.058,10.395v-10.401h-0.006z" fill="#ae145a"/><path d="M191.7035,197.7465c0,0 0,-24.934 0,-16.067c0,8.868 7.199,16.067 16.067,16.067h59.701c1.639,0 2.97,1.331 2.97,2.97c0,1.64 -1.331,2.97 -2.97,2.97h-59.719c-8.867,0 -16.066,7.2 -16.066,16.067c0,8.815 0,-16.067 0,-16.067h0.017z" fill="#ae145a"/></g></g></svg>