<svg version="1.1" xmlns="http://www.w3.org/2000/svg" xmlns:xlink="http://www.w3.org/1999/xlink" width="86.448" height="16.8"><g transform="translate(-196.942,-170.30539)"><g data-paper-data="{&quot;isPaintingLayer&quot;:true}" fill="#333333" fill-rule="nonzero" stroke="none" stroke-width="1" stroke-linecap="butt" stroke-linejoin="round" stroke-miterlimit="1.41421" stroke-dasharray="" stroke-dashoffset="0" font-family="none" font-weight="none" font-size="none" text-anchor="none" style="mix-blend-mode: normal"><path d="M210.142,175.05739c0,1.248 -0.504,2.208 -1.296,2.808c-0.456,0.336 -0.912,0.528 -1.344,0.576v0.096c1.248,0.096 2.376,1.008 2.76,1.992c0.216,0.552 0.336,1.128 0.336,1.704c0,2.952 -2.208,4.512 -5.304,4.512h-8.352v-16.08h8.328c2.808,0 4.872,1.656 4.872,4.392zM204.502,173.85739h-3.6v3.456h3.456c1.104,0 1.944,-0.72 1.944,-1.8c0,-0.984 -0.816,-1.656 -1.8,-1.656zM204.67,180.02539h-3.768v3.528h3.696c1.176,0 1.968,-0.648 1.968,-1.8c0,-1.056 -0.816,-1.728 -1.896,-1.728z"/><path d="M224.71,178.03339c0.408,0.888 0.6,1.776 0.6,2.688c0,3.048 -1.824,5.04 -4.08,5.904c-0.792,0.312 -1.632,0.456 -2.52,0.456c-1.824,0 -3.144,-0.552 -4.368,-1.464c-1.296,-0.984 -2.304,-2.784 -2.304,-4.896c0,-2.016 0.864,-3.552 1.944,-4.584c1.104,-1.008 2.736,-1.752 4.728,-1.752c2.856,0 5.088,1.56 6,3.648zM218.71,183.84139c1.632,0 2.904,-1.392 2.904,-3.12c0,-1.68 -1.272,-3.12 -2.904,-3.12c-1.728,0 -2.976,1.368 -2.976,3.12c0,1.776 1.296,3.12 2.976,3.12z"/><path d="M239.326,186.74539h-4.416l-2.304,-3.48l-2.328,3.48h-4.392l3.96,-5.832l-3.96,-6.216h4.392l2.328,3.744l2.304,-3.744h4.416l-3.984,6.216z"/><path d="M246.262,187.10539c-1.92,0 -3.456,-0.768 -4.488,-1.752c-1.08,-1.032 -1.872,-2.64 -1.872,-4.632c0,-3.048 1.728,-5.04 3.936,-5.904c0.792,-0.312 1.608,-0.48 2.448,-0.48c2.904,0 4.824,1.656 5.688,3.768c0.336,0.792 0.504,1.68 0.528,2.616v0.984h-8.832c0.288,1.248 1.176,2.328 2.592,2.328c1.2,0 2.064,-0.456 2.568,-1.392l3.408,0.696c-0.936,2.232 -2.832,3.768 -5.976,3.768zM246.286,177.45739c-1.248,0 -2.232,0.888 -2.544,1.896h4.968c-0.312,-1.056 -1.152,-1.896 -2.424,-1.896z"/><path d="M259.15,174.33739c2.784,0 4.968,1.248 5.472,3.456l-3.84,-0.024c-0.384,-0.432 -0.936,-0.696 -1.68,-0.696c-0.744,0 -1.368,0.288 -1.368,0.936c0,0.432 0.312,0.72 0.912,0.84l2.832,0.576c1.872,0.384 3.336,1.56 3.336,3.624c0,2.856 -2.568,4.056 -5.472,4.056c-2.952,0 -5.232,-1.056 -5.664,-3.504l4.104,0.024c0.336,0.432 1.08,0.624 1.776,0.624c0.768,0 1.56,-0.288 1.56,-0.96c0,-0.456 -0.408,-0.744 -1.2,-0.888l-2.448,-0.48c-1.92,-0.36 -3.504,-1.392 -3.504,-3.504c0,-2.64 2.4,-4.08 5.184,-4.08z"/><path d="M275.254,175.51339h-3.792c0.168,-2.544 1.584,-4.152 3.624,-4.848c0.72,-0.24 1.488,-0.36 2.328,-0.36c3.288,0 5.808,1.968 5.808,5.208c0,0.792 -0.192,1.56 -0.576,2.352c-0.384,0.816 -1.32,1.896 -2.808,3.312l-2.304,2.112h5.856v3.456h-11.664v-2.592l5.544,-5.208c0.648,-0.6 1.128,-1.08 1.392,-1.392c0.432,-0.528 0.768,-1.176 0.768,-2.016c0,-1.128 -0.864,-1.92 -1.992,-1.92c-1.32,0 -1.944,0.816 -2.184,1.896z"/></g></g></svg>