<?xml version="1.0" encoding="UTF-8" standalone="no"?>
<!DOCTYPE svg PUBLIC "-//W3C//DTD SVG 1.1//EN" "http://www.w3.org/Graphics/SVG/1.1/DTD/svg11.dtd">
<svg width="53px" height="27px" version="1.1" xmlns="http://www.w3.org/2000/svg" xmlns:xlink="http://www.w3.org/1999/xlink" xml:space="preserve" xmlns:serif="http://www.serif.com/" style="fill-rule:evenodd;clip-rule:evenodd;stroke-linecap:round;stroke-linejoin:round;stroke-miterlimit:1.5;">
    <g transform="matrix(1,0,0,1,-47.8642,-111.463)">
        <g transform="matrix(1,0,0,1,0,-0.922458)">
            <rect x="47.864" y="112.385" width="52.836" height="26.161" style="fill:white;"/>
        </g>
        <g transform="matrix(1,0,0,1,16.8208,8.07811)">
            <g transform="matrix(12,0,0,12,50.6513,120.797)">
                <path d="M0.368,-0.368L0.368,-0.296L0.664,-0.296C0.66,-0.263 0.651,-0.232 0.637,-0.203C0.623,-0.174 0.605,-0.149 0.582,-0.128C0.559,-0.107 0.533,-0.09 0.503,-0.078C0.473,-0.067 0.441,-0.061 0.406,-0.061C0.369,-0.061 0.334,-0.068 0.301,-0.082C0.268,-0.096 0.239,-0.115 0.214,-0.14C0.189,-0.165 0.17,-0.195 0.156,-0.229C0.142,-0.262 0.135,-0.298 0.135,-0.335C0.135,-0.372 0.142,-0.408 0.155,-0.441C0.169,-0.475 0.188,-0.505 0.212,-0.53C0.237,-0.555 0.265,-0.574 0.298,-0.588C0.331,-0.602 0.366,-0.609 0.402,-0.609C0.441,-0.609 0.479,-0.602 0.514,-0.588C0.549,-0.574 0.577,-0.556 0.598,-0.533C0.619,-0.51 0.626,-0.502 0.637,-0.479L0.718,-0.479C0.694,-0.54 0.654,-0.597 0.597,-0.632C0.54,-0.666 0.475,-0.683 0.402,-0.683C0.355,-0.683 0.311,-0.674 0.268,-0.656C0.225,-0.639 0.188,-0.614 0.156,-0.582C0.124,-0.55 0.099,-0.513 0.082,-0.47C0.064,-0.427 0.055,-0.382 0.055,-0.335C0.055,-0.288 0.064,-0.243 0.082,-0.2C0.099,-0.157 0.124,-0.12 0.156,-0.088C0.188,-0.056 0.225,-0.031 0.268,-0.014C0.311,0.004 0.357,0.013 0.404,0.013C0.452,0.013 0.497,0.004 0.538,-0.014C0.58,-0.031 0.616,-0.056 0.646,-0.087C0.676,-0.119 0.699,-0.156 0.715,-0.199C0.732,-0.242 0.74,-0.287 0.74,-0.334L0.739,-0.368L0.368,-0.368Z" style="fill:rgb(88,88,88);fill-rule:nonzero;"/>
            </g>
            <g transform="matrix(12,0,0,12,60.1913,120.797)">
                <path d="M0.363,-0.498C0.32,-0.498 0.281,-0.487 0.247,-0.464C0.214,-0.441 0.186,-0.411 0.165,-0.372L0.165,-0.493L0.088,-0.493L0.088,0L0.165,0L0.165,-0.19C0.165,-0.232 0.171,-0.268 0.183,-0.298C0.195,-0.328 0.21,-0.352 0.229,-0.371C0.248,-0.39 0.269,-0.403 0.292,-0.411C0.316,-0.418 0.34,-0.422 0.363,-0.422L0.392,-0.421L0.398,-0.494C0.389,-0.497 0.377,-0.498 0.363,-0.498Z" style="fill:rgb(88,88,88);fill-rule:nonzero;"/>
            </g>
            <g transform="matrix(12,0,0,12,64.9793,120.797)">
                <path d="M0.54,-0.259C0.539,-0.294 0.532,-0.327 0.519,-0.358C0.506,-0.389 0.489,-0.415 0.467,-0.437C0.445,-0.459 0.42,-0.476 0.391,-0.487C0.362,-0.499 0.331,-0.505 0.298,-0.505C0.265,-0.505 0.231,-0.498 0.196,-0.484C0.161,-0.47 0.131,-0.449 0.107,-0.42C0.082,-0.391 0.066,-0.362 0.057,-0.332C0.048,-0.302 0.043,-0.273 0.043,-0.245C0.043,-0.208 0.05,-0.173 0.063,-0.14C0.076,-0.108 0.095,-0.081 0.118,-0.058C0.142,-0.035 0.169,-0.018 0.2,-0.006C0.23,0.007 0.261,0.013 0.293,0.013C0.349,0.013 0.398,-0.001 0.439,-0.027C0.48,-0.054 0.51,-0.093 0.529,-0.144L0.456,-0.144C0.439,-0.107 0.422,-0.096 0.393,-0.079C0.364,-0.062 0.33,-0.054 0.293,-0.054C0.266,-0.054 0.242,-0.06 0.22,-0.071C0.197,-0.082 0.179,-0.096 0.164,-0.113C0.149,-0.13 0.137,-0.149 0.13,-0.17C0.123,-0.191 0.118,-0.211 0.117,-0.231L0.54,-0.231L0.54,-0.259ZM0.298,-0.438C0.323,-0.438 0.348,-0.432 0.373,-0.421C0.398,-0.41 0.418,-0.392 0.434,-0.368C0.449,-0.344 0.459,-0.317 0.463,-0.288L0.12,-0.288C0.125,-0.323 0.139,-0.352 0.16,-0.376C0.181,-0.4 0.205,-0.416 0.231,-0.425C0.257,-0.434 0.279,-0.438 0.298,-0.438Z" style="fill:rgb(88,88,88);fill-rule:nonzero;"/>
            </g>
            <g transform="matrix(12,0,0,12,71.7833,120.797)">
                <path d="M0.545,-0.493L0.46,-0.493L0.28,-0.099L0.104,-0.493L0.018,-0.493L0.239,-0.007L0.158,0.17L0.243,0.17L0.545,-0.493Z" style="fill:rgb(88,88,88);fill-rule:nonzero;"/>
            </g>
        </g>
        <g transform="matrix(1,0,0,1,3.89218,7.6316)">
            <path d="M60.607,113.726C60.607,111.968 59.179,110.54 57.421,110.54L51.05,110.54C49.292,110.54 47.864,111.968 47.864,113.726L47.864,120.097C47.864,121.855 49.292,123.283 51.05,123.283L57.421,123.283C59.179,123.283 60.607,121.855 60.607,120.097L60.607,113.726Z" style="fill:rgb(59,59,59);"/>
        </g>
        <g transform="matrix(1,0,0,1,0.300596,-0.809306)">
            <path d="M54.866,125.797L56.543,127.475L60.788,123.23" style="fill:none;stroke:white;stroke-width:1px;"/>
        </g>
    </g>
</svg>
