<svg version="1.1" xmlns="http://www.w3.org/2000/svg" xmlns:xlink="http://www.w3.org/1999/xlink" width="480.48" height="360"><g transform="translate(0.23999,0)"><g data-paper-data="{&quot;isPaintingLayer&quot;:true}" fill="none" fill-rule="none" stroke="none" stroke-width="1" stroke-linecap="round" stroke-linejoin="round" stroke-miterlimit="1.5" stroke-dasharray="" stroke-dashoffset="0" font-family="none" font-weight="none" font-size="none" text-anchor="none" style="mix-blend-mode: normal"><path d="M115.51701,0v360h-115.757v-360zM35.15101,138.546c1.92,0 3.477,-1.558 3.477,-3.477v-21.052c0,-1.919 -1.557,-3.476 -3.477,-3.477h-21.051c-1.919,0.001 -3.477,1.558 -3.477,3.477v21.052c0,1.919 1.558,3.477 3.477,3.477zM82.88701,82.236c0.96,0 1.739,-0.779 1.739,-1.739v-10.525c0,-0.96 -0.779,-1.739 -1.739,-1.739h-10.526c-0.959,0 -1.738,0.779 -1.738,1.739v10.525c0,0.96 0.779,1.739 1.738,1.739zM52.88701,82.236c0.96,0 1.739,-0.779 1.739,-1.739v-10.525c0,-0.96 -0.779,-1.739 -1.739,-1.739h-10.526c-0.959,0 -1.738,0.779 -1.738,1.739v10.525c0,0.96 0.779,1.739 1.738,1.739zM22.88701,82.236c0.96,0 1.739,-0.779 1.739,-1.739v-10.525c0,-0.96 -0.779,-1.739 -1.739,-1.739h-10.526c-0.959,0 -1.738,0.779 -1.738,1.739v10.525c0,0.96 0.779,1.739 1.738,1.739zM82.88701,52.236c0.96,0 1.739,-0.779 1.739,-1.739v-10.525c0,-0.96 -0.779,-1.739 -1.739,-1.739h-10.526c-0.959,0 -1.738,0.779 -1.738,1.739v10.525c0,0.96 0.779,1.739 1.738,1.739zM52.88701,52.236c0.96,0 1.739,-0.779 1.739,-1.739v-10.525c0,-0.96 -0.779,-1.739 -1.739,-1.739h-10.526c-0.959,0 -1.738,0.779 -1.738,1.739v10.525c0,0.96 0.779,1.739 1.738,1.739zM22.88701,52.236c0.96,0 1.739,-0.779 1.739,-1.739v-10.525c0,-0.96 -0.779,-1.739 -1.739,-1.739h-10.526c-0.959,0 -1.738,0.779 -1.738,1.739v10.525c0,0.96 0.779,1.739 1.738,1.739z" fill="#ffffff" fill-rule="evenodd" stroke="none"/><g fill="#4d4d4d" fill-rule="nonzero" stroke="none"><g><path d="M16.88611,155.3849h2.064c-0.276,1.512 -1.248,2.544 -2.616,2.976c-0.456,0.144 -0.936,0.216 -1.44,0.216c-1.284,0 -2.328,-0.54 -3.024,-1.212c-0.684,-0.672 -1.248,-1.716 -1.248,-2.988c0,-1.272 0.564,-2.304 1.248,-2.976c0.696,-0.672 1.74,-1.224 3.024,-1.224c0.996,0 1.872,0.276 2.628,0.84c0.756,0.564 1.224,1.308 1.416,2.244h-2.112c-0.06,-0.132 -0.132,-0.336 -0.228,-0.456c-0.324,-0.48 -0.924,-0.816 -1.704,-0.816c-1.08,0 -1.788,0.66 -2.112,1.452c-0.12,0.3 -0.18,0.612 -0.18,0.936c0,1.092 0.624,1.884 1.404,2.22c0.276,0.12 0.576,0.18 0.888,0.18c1.02,0 1.692,-0.576 1.992,-1.392z"/></g><g><path d="M27.11009,151.4009c0.684,0.684 1.248,1.704 1.248,2.988c0,1.272 -0.564,2.292 -1.248,2.964c-0.696,0.684 -1.74,1.224 -3.036,1.224c-1.296,0 -2.34,-0.54 -3.036,-1.224c-0.684,-0.672 -1.248,-1.692 -1.248,-2.964c0,-1.272 0.564,-2.304 1.248,-2.988c0.696,-0.684 1.74,-1.224 3.036,-1.224c1.296,0 2.34,0.54 3.036,1.224zM26.21009,155.3249c0.108,-0.3 0.168,-0.612 0.168,-0.936c0,-1.056 -0.576,-1.86 -1.344,-2.196c-0.324,-0.132 -0.636,-0.204 -0.96,-0.204c-1.032,0 -1.8,0.612 -2.112,1.392c-0.132,0.336 -0.192,0.672 -0.192,1.008c0,1.104 0.6,1.86 1.392,2.196c0.288,0.12 0.588,0.18 0.912,0.18c1.092,0 1.812,-0.636 2.136,-1.44z"/></g><g><path d="M35.41409,158.3969h-5.94v-8.04h1.98v6.312h3.96z"/></g><g><path d="M43.32211,151.4009c0.684,0.684 1.248,1.704 1.248,2.988c0,1.272 -0.564,2.292 -1.248,2.964c-0.696,0.684 -1.74,1.224 -3.036,1.224c-1.296,0 -2.34,-0.54 -3.036,-1.224c-0.684,-0.672 -1.248,-1.692 -1.248,-2.964c0,-1.272 0.564,-2.304 1.248,-2.988c0.696,-0.684 1.74,-1.224 3.036,-1.224c1.296,0 2.34,0.54 3.036,1.224zM42.42211,155.3249c0.108,-0.3 0.168,-0.612 0.168,-0.936c0,-1.056 -0.576,-1.86 -1.344,-2.196c-0.324,-0.132 -0.636,-0.204 -0.96,-0.204c-1.032,0 -1.8,0.612 -2.112,1.392c-0.132,0.336 -0.192,0.672 -0.192,1.008c0,1.104 0.6,1.86 1.392,2.196c0.288,0.12 0.588,0.18 0.912,0.18c1.092,0 1.812,-0.636 2.136,-1.44z"/></g><g><path d="M50.89411,154.7729v-4.416h1.98v4.416c0,1.776 -0.84,3.012 -2.112,3.528c-0.444,0.18 -0.936,0.276 -1.452,0.276c-1.776,0 -2.892,-0.936 -3.384,-2.256c-0.18,-0.468 -0.264,-0.984 -0.264,-1.548v-4.416h1.98v4.416c0,1.128 0.588,1.98 1.668,1.98c1.032,0 1.584,-0.888 1.584,-1.98z"/></g><g><path d="M59.09011,155.5409l2.52,2.856h-2.388l-2.424,-2.76h-0.576v2.76h-1.98v-8.04h4.068c1.656,0 2.892,1.008 2.892,2.628c0,1.404 -0.924,2.292 -2.112,2.556zM58.09411,152.0489h-1.872v1.932h1.872c0.648,0 1.164,-0.348 1.164,-0.972c0,-0.612 -0.528,-0.96 -1.164,-0.96z"/></g><g><path d="M63.65011,152.4449c0.588,0 1.104,0.492 1.104,1.08c0,0.612 -0.492,1.08 -1.104,1.08c-0.612,0 -1.092,-0.468 -1.092,-1.08c0,-0.588 0.504,-1.08 1.092,-1.08zM63.65011,156.2969c0.588,0 1.104,0.492 1.104,1.08c0,0.612 -0.492,1.08 -1.104,1.08c-0.612,0 -1.092,-0.468 -1.092,-1.08c0,-0.588 0.504,-1.08 1.092,-1.08z"/></g></g><g fill="#4d4d4d" fill-rule="nonzero" stroke="none"><g><path d="M12.64309,16.2487c0,0.408 0.264,0.588 0.648,0.672l1.668,0.372c1.236,0.276 2.208,0.936 2.208,2.34c0,1.38 -0.936,2.124 -2.04,2.436c-0.396,0.108 -0.828,0.168 -1.272,0.168c-1.44,0 -2.556,-0.528 -3.132,-1.404c-0.204,-0.312 -0.324,-0.66 -0.384,-1.032h2.184c0.24,0.516 0.756,0.792 1.44,0.792c0.612,0 1.188,-0.264 1.188,-0.828c0,-0.456 -0.3,-0.612 -0.744,-0.708l-1.68,-0.36c-1.44,-0.324 -2.16,-1.104 -2.16,-2.328c0,-1.656 1.452,-2.532 3.18,-2.532c1.752,0 3.024,0.876 3.324,2.328h-2.088c-0.216,-0.42 -0.684,-0.732 -1.26,-0.732c-0.564,0 -1.08,0.288 -1.08,0.816z"/></g><g><path d="M24.22309,22.0567l-0.564,-1.464h-3.384l-0.564,1.464h-2.124l3.36,-8.04h2.028l3.36,8.04zM21.96709,16.2487l-1.02,2.64h2.052z"/></g><g><path d="M30.63109,22.0567h-1.908l-3.42,-8.04h2.184l2.184,5.328l2.196,-5.328h2.184z"/></g><g><path d="M41.09511,22.0567h-6.264v-8.04h6.228v1.704h-4.248v1.512h3.9v1.608h-3.9v1.512h4.284z"/></g><g><path d="M45.51111,14.0167c2.052,0 3.48,0.948 4.092,2.4c0.204,0.492 0.312,1.032 0.312,1.62c0,1.284 -0.504,2.256 -1.212,2.904c-0.732,0.672 -1.824,1.116 -3.192,1.116h-3.18v-8.04zM45.43911,15.7327h-1.128v4.608h1.128c1.44,0 2.484,-0.876 2.484,-2.304c0,-1.428 -1.044,-2.304 -2.484,-2.304z"/></g><g><path d="M51.81111,16.1047c0.588,0 1.104,0.492 1.104,1.08c0,0.612 -0.492,1.08 -1.104,1.08c-0.612,0 -1.092,-0.468 -1.092,-1.08c0,-0.588 0.504,-1.08 1.092,-1.08zM51.81111,19.9567c0.588,0 1.104,0.492 1.104,1.08c0,0.612 -0.492,1.08 -1.104,1.08c-0.612,0 -1.092,-0.468 -1.092,-1.08c0,-0.588 0.504,-1.08 1.092,-1.08z"/></g></g><path d="M16.88606,338.8725l-3.072,-3.444h-1.476v3.444h-0.948v-8.04h3.72c0.384,0 0.744,0.06 1.068,0.168c0.324,0.108 0.6,0.252 0.84,0.456c0.228,0.204 0.408,0.456 0.528,0.732c0.132,0.288 0.192,0.6 0.192,0.936c0,0.252 -0.048,0.504 -0.132,0.768c-0.084,0.264 -0.228,0.516 -0.432,0.744c-0.204,0.228 -0.48,0.408 -0.828,0.564c-0.348,0.156 -0.756,0.228 -1.236,0.228h-0.144l3.108,3.444zM15.11006,334.5645c0.504,0 0.912,-0.132 1.224,-0.396c0.3,-0.264 0.456,-0.612 0.456,-1.044c0,-0.432 -0.156,-0.78 -0.456,-1.044c-0.312,-0.264 -0.72,-0.396 -1.224,-0.396h-2.772v2.88z" fill="#4d4d4d" fill-rule="nonzero" stroke="none"/><path d="M59.72369,334.3005l0.012,0.408c0,0.564 -0.096,1.104 -0.3,1.62c-0.192,0.516 -0.468,0.96 -0.828,1.344c-0.36,0.372 -0.792,0.672 -1.296,0.876c-0.492,0.216 -1.032,0.324 -1.608,0.324c-0.564,0 -1.116,-0.108 -1.632,-0.324c-0.516,-0.204 -0.96,-0.504 -1.344,-0.888c-0.384,-0.384 -0.684,-0.828 -0.888,-1.344c-0.216,-0.516 -0.324,-1.056 -0.324,-1.62c0,-0.564 0.108,-1.104 0.324,-1.62c0.204,-0.516 0.504,-0.96 0.888,-1.344c0.384,-0.384 0.828,-0.684 1.344,-0.888c0.516,-0.216 1.044,-0.324 1.608,-0.324c0.876,0 1.656,0.204 2.34,0.612c0.684,0.42 1.164,1.104 1.452,1.836h-0.972c-0.132,-0.276 -0.216,-0.372 -0.468,-0.648c-0.252,-0.276 -0.588,-0.492 -1.008,-0.66c-0.42,-0.168 -0.876,-0.252 -1.344,-0.252c-0.432,0 -0.852,0.084 -1.248,0.252c-0.396,0.168 -0.732,0.396 -1.032,0.696c-0.288,0.3 -0.516,0.66 -0.684,1.068c-0.156,0.396 -0.24,0.828 -0.24,1.272c0,0.444 0.084,0.876 0.252,1.272c0.168,0.408 0.396,0.768 0.696,1.068c0.3,0.3 0.648,0.528 1.044,0.696c0.396,0.168 0.816,0.252 1.26,0.252c0.42,0 0.804,-0.072 1.164,-0.204c0.36,-0.144 0.672,-0.348 0.948,-0.6c0.276,-0.252 0.492,-0.552 0.66,-0.9c0.168,-0.348 0.276,-0.72 0.324,-1.116h-3.552v-0.864z" fill="#4d4d4d" fill-rule="nonzero" stroke="none"/><path d="M97.90519,334.4685c0.444,0.06 0.828,0.252 1.14,0.588c0.324,0.336 0.48,0.78 0.48,1.32c0,0.648 -0.216,1.176 -0.66,1.584c-0.444,0.396 -1.056,0.6 -1.836,0.6h-3.852v-8.04h3.696c0.744,0 1.332,0.192 1.752,0.576c0.42,0.384 0.636,0.9 0.636,1.536c0,0.36 -0.084,0.684 -0.24,0.972c-0.156,0.276 -0.348,0.48 -0.552,0.612c-0.204,0.12 -0.396,0.192 -0.564,0.216zM94.12519,334.1205h2.736c0.204,0 0.432,-0.048 0.672,-0.132c0.228,-0.084 0.432,-0.252 0.588,-0.48c0.156,-0.24 0.24,-0.516 0.24,-0.828c0,-0.18 -0.048,-0.384 -0.132,-0.6c-0.096,-0.204 -0.276,-0.384 -0.528,-0.528c-0.264,-0.144 -0.564,-0.216 -0.912,-0.216h-2.664zM96.94519,337.7445c0.252,0 0.504,-0.048 0.756,-0.132c0.252,-0.096 0.456,-0.264 0.624,-0.492c0.156,-0.24 0.24,-0.516 0.24,-0.828c0,-0.42 -0.156,-0.756 -0.456,-1.02c-0.3,-0.252 -0.684,-0.384 -1.152,-0.384h-2.832v2.856z" fill="#4d4d4d" fill-rule="nonzero" stroke="none"/><path d="M11.391,315.09156v-140.77413c0,-2.26773 1.84132,-4.10948 4.10899,-4.10948c2.26766,0 4.10899,1.84176 4.10899,4.10948v140.77413c0,2.26773 -1.84132,4.10948 -4.10899,4.10948c-2.26766,0 -4.10899,-1.84176 -4.10899,-4.10948z" fill="#e8e8e8" fill-rule="evenodd" stroke="none"/><path d="M51.516,315.09156v-140.77413c0,-2.26773 1.84132,-4.10948 4.10899,-4.10948c2.26766,0 4.10899,1.84176 4.10899,4.10948v140.77413c0,2.26773 -1.84132,4.10948 -4.10899,4.10948c-2.26766,0 -4.10899,-1.84176 -4.10899,-4.10948z" fill="#e8e8e8" fill-rule="evenodd" stroke="none"/><path d="M92.242,315.09156v-140.77413c0,-2.26773 1.84132,-4.10948 4.10899,-4.10948c2.26766,0 4.10899,1.84176 4.10899,4.10948v140.77413c0,2.26773 -1.84132,4.10948 -4.10899,4.10948c-2.26766,0 -4.10899,-1.84176 -4.10899,-4.10948z" fill="#e8e8e8" fill-rule="evenodd" stroke="none"/><path d="M10.62233,96.3882h98.299" fill="none" fill-rule="evenodd" stroke="#dedede"/><path d="M365.02201,360v-360h115.218v360z" fill="#ffffff" fill-rule="evenodd" stroke="none"/><g data-paper-data="{&quot;origPos&quot;:null}" fill="#4d4d4d" fill-rule="nonzero" stroke="none"><g><path d="M378.22159,200.6122v6.312h-1.968v-6.312h-2.604v-1.728h7.176v1.728z"/></g><g><path d="M388.48159,199.9282c0.684,0.684 1.248,1.704 1.248,2.988c0,1.272 -0.564,2.292 -1.248,2.964c-0.696,0.684 -1.74,1.224 -3.036,1.224c-1.296,0 -2.34,-0.54 -3.036,-1.224c-0.684,-0.672 -1.248,-1.692 -1.248,-2.964c0,-1.272 0.564,-2.304 1.248,-2.988c0.696,-0.684 1.74,-1.224 3.036,-1.224c1.296,0 2.34,0.54 3.036,1.224zM387.58159,203.8522c0.108,-0.3 0.168,-0.612 0.168,-0.936c0,-1.056 -0.576,-1.86 -1.344,-2.196c-0.324,-0.132 -0.636,-0.204 -0.96,-0.204c-1.032,0 -1.8,0.612 -2.112,1.392c-0.132,0.336 -0.192,0.672 -0.192,1.008c0,1.104 0.6,1.86 1.392,2.196c0.288,0.12 0.588,0.18 0.912,0.18c1.092,0 1.812,-0.636 2.136,-1.44z"/></g><g><path d="M397.88959,199.9282c0.684,0.684 1.248,1.704 1.248,2.988c0,1.272 -0.564,2.292 -1.248,2.964c-0.696,0.684 -1.74,1.224 -3.036,1.224c-1.296,0 -2.34,-0.54 -3.036,-1.224c-0.684,-0.672 -1.248,-1.692 -1.248,-2.964c0,-1.272 0.564,-2.304 1.248,-2.988c0.696,-0.684 1.74,-1.224 3.036,-1.224c1.296,0 2.34,0.54 3.036,1.224zM396.98959,203.8522c0.108,-0.3 0.168,-0.612 0.168,-0.936c0,-1.056 -0.576,-1.86 -1.344,-2.196c-0.324,-0.132 -0.636,-0.204 -0.96,-0.204c-1.032,0 -1.8,0.612 -2.112,1.392c-0.132,0.336 -0.192,0.672 -0.192,1.008c0,1.104 0.6,1.86 1.392,2.196c0.288,0.12 0.588,0.18 0.912,0.18c1.092,0 1.812,-0.636 2.136,-1.44z"/></g><g><path d="M406.19361,206.9242h-5.94v-8.04h1.98v6.312h3.96z"/></g><g><path d="M409.22961,201.1162c0,0.408 0.264,0.588 0.648,0.672l1.668,0.372c1.236,0.276 2.208,0.936 2.208,2.34c0,1.38 -0.936,2.124 -2.04,2.436c-0.396,0.108 -0.828,0.168 -1.272,0.168c-1.44,0 -2.556,-0.528 -3.132,-1.404c-0.204,-0.312 -0.324,-0.66 -0.384,-1.032h2.184c0.24,0.516 0.756,0.792 1.44,0.792c0.612,0 1.188,-0.264 1.188,-0.828c0,-0.456 -0.3,-0.612 -0.744,-0.708l-1.68,-0.36c-1.44,-0.324 -2.16,-1.104 -2.16,-2.328c0,-1.656 1.452,-2.532 3.18,-2.532c1.752,0 3.024,0.876 3.324,2.328h-2.088c-0.216,-0.42 -0.684,-0.732 -1.26,-0.732c-0.564,0 -1.08,0.288 -1.08,0.816z"/></g><g><path d="M415.70961,200.9722c0.588,0 1.104,0.492 1.104,1.08c0,0.612 -0.492,1.08 -1.104,1.08c-0.612,0 -1.092,-0.468 -1.092,-1.08c0,-0.588 0.504,-1.08 1.092,-1.08zM415.70961,204.8242c0.588,0 1.104,0.492 1.104,1.08c0,0.612 -0.492,1.08 -1.104,1.08c-0.612,0 -1.092,-0.468 -1.092,-1.08c0,-0.588 0.504,-1.08 1.092,-1.08z"/></g></g><path d="M370.18901,189.5871h98.299" data-paper-data="{&quot;origPos&quot;:null}" fill="none" fill-rule="evenodd" stroke="#dedede"/></g></g></svg>