<?xml version="1.0" encoding="UTF-8" standalone="no"?>
<!DOCTYPE svg PUBLIC "-//W3C//DTD SVG 1.1//EN" "http://www.w3.org/Graphics/SVG/1.1/DTD/svg11.dtd">
<svg width="100px" height="17px" version="1.1" xmlns="http://www.w3.org/2000/svg" xmlns:xlink="http://www.w3.org/1999/xlink" xml:space="preserve" xmlns:serif="http://www.serif.com/" style="fill-rule:evenodd;clip-rule:evenodd;stroke-linejoin:round;stroke-miterlimit:2;">
    <g transform="matrix(1,0,0,1,-190.252,-169.963)">
        <g transform="matrix(1,0,0,1,157.826,-9.17525)">
            <g transform="matrix(18,0,0,18,31.3809,192.475)">
                <rect x="0.058" y="-0.67" width="0.165" height="0.67" style="fill-rule:nonzero;"/>
            </g>
            <g transform="matrix(18,0,0,18,36.4389,192.475)">
                <path d="M0.53,-0.432C0.5,-0.48 0.441,-0.517 0.366,-0.517C0.304,-0.517 0.255,-0.497 0.218,-0.456L0.218,-0.502L0.058,-0.502L0.058,0L0.218,0L0.218,-0.246C0.218,-0.317 0.248,-0.373 0.314,-0.373C0.364,-0.373 0.399,-0.332 0.399,-0.28L0.399,0L0.559,0L0.559,-0.246C0.559,-0.314 0.588,-0.373 0.657,-0.373C0.706,-0.373 0.741,-0.331 0.741,-0.28L0.741,0L0.9,0L0.9,-0.314C0.9,-0.343 0.895,-0.371 0.885,-0.396C0.86,-0.463 0.799,-0.517 0.708,-0.517C0.627,-0.517 0.567,-0.48 0.53,-0.432Z" style="fill-rule:nonzero;"/>
            </g>
            <g transform="matrix(18,0,0,18,53.5569,192.475)">
                <path d="M0.374,-0.517C0.311,-0.517 0.259,-0.499 0.218,-0.462L0.218,-0.502L0.058,-0.502L0.058,0.17L0.218,0.17L0.218,-0.04C0.259,-0.003 0.311,0.015 0.374,0.015C0.448,0.015 0.508,-0.017 0.546,-0.058C0.587,-0.102 0.619,-0.17 0.619,-0.251C0.619,-0.316 0.597,-0.38 0.566,-0.419C0.524,-0.473 0.465,-0.517 0.374,-0.517L0.374,-0.517ZM0.218,-0.251C0.218,-0.322 0.272,-0.381 0.341,-0.381C0.415,-0.381 0.462,-0.323 0.462,-0.251C0.462,-0.176 0.413,-0.121 0.341,-0.121C0.271,-0.121 0.218,-0.178 0.218,-0.251L0.218,-0.251Z" style="fill-rule:nonzero;"/>
            </g>
            <g transform="matrix(18,0,0,18,65.1489,192.475)">
                <path d="M0.303,-0.515C0.22,-0.515 0.152,-0.484 0.106,-0.442C0.061,-0.399 0.025,-0.335 0.025,-0.251C0.025,-0.163 0.067,-0.088 0.121,-0.047C0.172,-0.009 0.227,0.014 0.303,0.014C0.34,0.014 0.375,0.008 0.408,-0.005C0.502,-0.041 0.578,-0.124 0.578,-0.251C0.578,-0.289 0.57,-0.326 0.553,-0.363C0.515,-0.45 0.422,-0.515 0.303,-0.515ZM0.179,-0.251C0.179,-0.324 0.231,-0.381 0.303,-0.381C0.371,-0.381 0.424,-0.321 0.424,-0.251C0.424,-0.179 0.371,-0.121 0.303,-0.121C0.233,-0.121 0.179,-0.177 0.179,-0.251Z" style="fill-rule:nonzero;"/>
            </g>
            <g transform="matrix(18,0,0,18,76.0029,192.475)">
                <path d="M0.218,-0.406L0.218,-0.502L0.058,-0.502L0.058,0L0.218,0L0.218,-0.157C0.218,-0.282 0.276,-0.345 0.391,-0.345L0.42,-0.345L0.427,-0.505C0.416,-0.508 0.404,-0.509 0.391,-0.509C0.306,-0.509 0.252,-0.461 0.218,-0.406L0.218,-0.406Z" style="fill-rule:nonzero;"/>
            </g>
            <g transform="matrix(18,0,0,18,84.0489,192.475)">
                <path d="M0.32,-0.128C0.275,-0.128 0.253,-0.152 0.253,-0.201L0.253,-0.375L0.401,-0.375L0.401,-0.502L0.253,-0.502L0.253,-0.65L0.093,-0.65L0.093,-0.502L0.002,-0.502L0.002,-0.375L0.093,-0.375L0.093,-0.185C0.093,-0.057 0.166,0.015 0.293,0.015C0.338,0.015 0.384,0.003 0.43,-0.022L0.393,-0.148C0.376,-0.139 0.344,-0.128 0.32,-0.128Z" style="fill-rule:nonzero;"/>
            </g>
            <g transform="matrix(18,0,0,18,91.8429,192.475)">
                <path d="M0.054,-0.65C0.054,-0.597 0.095,-0.561 0.146,-0.561C0.198,-0.561 0.239,-0.599 0.239,-0.65C0.239,-0.702 0.197,-0.741 0.146,-0.741C0.095,-0.741 0.054,-0.7 0.054,-0.65ZM0.226,0L0.226,-0.502L0.066,-0.502L0.066,0L0.226,0Z" style="fill-rule:nonzero;"/>
            </g>
            <g transform="matrix(18,0,0,18,97.0989,192.475)">
                <path d="M0.218,-0.454L0.218,-0.502L0.058,-0.502L0.058,0L0.218,0L0.218,-0.233C0.218,-0.314 0.247,-0.373 0.322,-0.373C0.377,-0.373 0.408,-0.328 0.408,-0.274L0.408,0L0.567,0L0.567,-0.308C0.567,-0.339 0.562,-0.367 0.553,-0.393C0.527,-0.464 0.467,-0.517 0.372,-0.517C0.305,-0.517 0.252,-0.49 0.218,-0.454L0.218,-0.454Z" style="fill-rule:nonzero;"/>
            </g>
            <g transform="matrix(18,0,0,18,108.223,192.475)">
                <path d="M0.293,0.059C0.268,0.059 0.246,0.054 0.229,0.045C0.212,0.036 0.194,0.02 0.175,-0.003L0.042,0.069C0.088,0.144 0.175,0.19 0.294,0.19C0.334,0.19 0.371,0.185 0.406,0.174C0.502,0.144 0.575,0.074 0.575,-0.05L0.575,-0.502L0.418,-0.502L0.418,-0.469C0.381,-0.501 0.33,-0.517 0.267,-0.517C0.235,-0.517 0.204,-0.511 0.175,-0.499C0.093,-0.466 0.025,-0.388 0.025,-0.275C0.025,-0.199 0.057,-0.139 0.097,-0.099C0.136,-0.061 0.194,-0.029 0.267,-0.029C0.33,-0.029 0.381,-0.045 0.418,-0.077L0.418,-0.063C0.418,0.012 0.367,0.059 0.293,0.059ZM0.181,-0.275C0.181,-0.341 0.232,-0.389 0.301,-0.389C0.366,-0.389 0.418,-0.34 0.418,-0.275C0.418,-0.211 0.367,-0.16 0.301,-0.16C0.232,-0.16 0.181,-0.208 0.181,-0.275Z" style="fill-rule:nonzero;"/>
            </g>
            <g transform="matrix(18,0,0,18,119.635,192.475)">
                <path d="M0.032,-0.085C0.032,-0.034 0.072,0.005 0.123,0.005C0.174,0.005 0.215,-0.034 0.215,-0.085C0.215,-0.134 0.172,-0.175 0.123,-0.175C0.074,-0.175 0.032,-0.134 0.032,-0.085Z" style="fill-rule:nonzero;"/>
            </g>
            <g transform="matrix(18,0,0,18,124.063,192.475)">
                <path d="M0.032,-0.085C0.032,-0.034 0.072,0.005 0.123,0.005C0.174,0.005 0.215,-0.034 0.215,-0.085C0.215,-0.134 0.172,-0.175 0.123,-0.175C0.074,-0.175 0.032,-0.134 0.032,-0.085Z" style="fill-rule:nonzero;"/>
            </g>
            <g transform="matrix(18,0,0,18,128.491,192.475)">
                <path d="M0.032,-0.085C0.032,-0.034 0.072,0.005 0.123,0.005C0.174,0.005 0.215,-0.034 0.215,-0.085C0.215,-0.134 0.172,-0.175 0.123,-0.175C0.074,-0.175 0.032,-0.134 0.032,-0.085Z" style="fill-rule:nonzero;"/>
            </g>
        </g>
    </g>
</svg>
